<?xml version="1.0" encoding="UTF-8"?>
<svg id="_Слой_2" data-name="Слой 2" xmlns="http://www.w3.org/2000/svg" viewBox="0 0 2134.34 1512.14">
  <defs>
    <style>
      .cls-1 {
        fill: #fff9eb;
        stroke-width: 0px;
      }
    </style>
  </defs>
  <g id="_Звезда_Св" data-name="Звезда Св">
    <path class="cls-1" d="m1313.21,5.89l217.33,367.92c2.19,3.71,6.2,5.96,10.5,5.89l581.1-8.54c12.22-.18,16.85,15.88,6.41,22.24l-421.75,256.76c-5.59,3.4-7.42,10.66-4.11,16.3l282.67,483.02c5.71,9.76-4.01,21.27-14.59,17.28l-681.39-257.37c-3.45-1.3-7.32-.95-10.47.97l-986.7,599.93c-11.03,6.71-23.42-6.36-16.13-17.02l516.47-755.48c4.38-6.41,1.61-15.23-5.65-17.99L7.76,424.75c-12.38-4.69-9.16-23.02,4.08-23.21l1015.12-14.41c3.91-.06,7.55-2.01,9.75-5.25L1292.97,5.25c4.95-7.27,15.77-6.92,20.24.65Z"/>
  </g>
</svg>